<?xml version="1.0" encoding="UTF-8"?><svg xmlns="http://www.w3.org/2000/svg" viewBox="0 0 332.9 147.9"><defs><style>.d{fill:none;opacity:.3;}.e{fill:#fff;}.f{fill:#31af41;}.g{fill:#363636;}</style></defs><g id="a"/><g id="b"><g id="c"><g><g><g><path class="g" d="M204,29.5h7.3v28.6h-7.3v-2.9c-2.2,2.1-5.6,3.5-9.2,3.5-7.6,0-14-5.8-14-15s6.4-15,14-15c3.6,0,7.1,1.4,9.2,3.5v-2.7Zm0,20v-11.4c-2.1-2-5-3.2-7.7-3.2-4.5,0-8.3,3.4-8.4,8.9,.1,5.5,3.9,8.9,8.4,8.9,2.8,0,5.7-1.2,7.7-3.2Z"/><path class="g" d="M237.1,28.9v7.8c-.6-.2-2-.3-2.9-.3-1.8,0-4.8,.4-7.4,2.5v19.3h-7.2V29.6h7.2v4.9c2.1-2.9,5.5-5.6,9.4-5.6,.4-.1,.7-.1,.9,0Z"/><path class="g" d="M267.8,43.1c0,.6-.1,1.3-.1,1.8h-20.8c.6,5.2,4.1,8.1,9.2,8.1,3,0,7.1-1,10-2.2v5.6c-2.4,1.3-6.8,2.4-10.8,2.4-9.7,0-15.2-6.6-15.2-15.2,0-9.2,6.2-14.7,14.4-14.7,8.6-.1,13.3,5.9,13.3,14.2Zm-20.6-2.8h13.8c-.5-3.6-2.8-5.8-6.5-5.8-3.6,0-6.4,2.2-7.3,5.8Z"/><path class="g" d="M299.8,43.1c0,.6-.1,1.3-.1,1.8h-20.8c.6,5.2,4.1,8.1,9.2,8.1,3,0,7.1-1,10-2.2v5.6c-2.4,1.3-6.8,2.4-10.8,2.4-9.7,0-15.2-6.6-15.2-15.2,0-9.2,6.2-14.7,14.4-14.7,8.6-.1,13.4,5.9,13.3,14.2Zm-20.6-2.8h13.8c-.5-3.6-2.8-5.8-6.5-5.8-3.6,0-6.4,2.2-7.3,5.8Z"/><path class="g" d="M202.4,96.7h7.8v.5l-14.2,28.1h-2.6l-14.2-28.1v-.5h7.7l7.8,16.9,7.7-16.9Z"/><path class="g" d="M239.4,110.3c0,.6-.1,1.3-.1,1.8h-20.8c.6,5.2,4.1,8.1,9.2,8.1,3,0,7.1-1,10-2.2v5.6c-2.4,1.3-6.8,2.4-10.8,2.4-9.7,0-15.2-6.6-15.2-15.2,0-9.2,6.2-14.7,14.4-14.7,8.6-.1,13.3,5.9,13.3,14.2Zm-20.6-2.8h13.8c-.5-3.6-2.8-5.8-6.5-5.8s-6.4,2.2-7.3,5.8Z"/><path class="g" d="M263.1,96.1v7.8c-.6-.2-2-.3-2.9-.3-1.8,0-4.8,.4-7.4,2.5v19.3h-7.2v-28.6h7.2v4.9c2.1-2.9,5.5-5.6,9.4-5.6,.4-.1,.7-.1,.9,0Z"/><path class="g" d="M289.3,83.3h7.3v42h-7.3v-2.9c-2.2,2.1-5.6,3.5-9.2,3.5-7.6,0-14-5.8-14-15s6.4-15,14-15c3.6,0,7.1,1.4,9.2,3.5v-16.1Zm0,33.4v-11.4c-2.1-2-5-3.2-7.7-3.2-4.5,0-8.3,3.4-8.4,8.9,.1,5.5,3.9,8.9,8.4,8.9,2.7,0,5.6-1.2,7.7-3.2Z"/><path class="g" d="M303.9,87.1c0-2.5,2-4.3,4.5-4.3s4.5,1.8,4.5,4.3-2,4.3-4.5,4.3-4.5-1.9-4.5-4.3Zm.9,38.2v-28.6h7.2v28.6h-7.2Z"/></g><g><path class="f" d="M112.7,76.5c-1.1,0-4.1,.5-7.1,5.1-2.8,4.3-4.5,10.5-4.5,16.9s1.6,12.6,4.5,16.9c.3,.4,.7,1,1.3,1.7,7.6-5.7,13.6-13.4,17.3-22.4-.5-5-2-9.6-4.3-13.1-1.1-1.5-3.8-5.1-7.2-5.1Z"/><path class="f" d="M22.2,59.5c-1.3,4.6-2,9.5-2,14.5,0,21.9,13,40.7,31.7,49.2v-23.7c-14.3-3.2-25.9-19.1-29.7-40Z"/><path class="f" d="M112.7,68.1c6.1,0,11.6,4.2,15.3,10.8,.1-1.6,.2-3.2,.2-4.9,0-24.1-15.8-44.5-37.6-51.5,2,6.8,3.1,14.4,3.1,22.3,0,28.9-14.7,52.7-33.3,55v26.3c4.4,1.2,9.1,1.8,13.9,1.8,9.2,0,17.8-2.3,25.4-6.4-4.3-5.6-7-13.9-7-23.1-.1-16.7,8.9-30.3,20-30.3Z"/><path class="f" d="M29.4,44v.9c0,13.1,3.3,25.3,9.3,34.4,4.6,7,9.4,10.1,13.3,11.4v-15l-10.6-10.6,6-6,7.1,7.1,8.7-15.3,7.3,4.2-10,17.6v18.6c4.2-.8,10.1-3.7,15.6-12.1,6-9.1,9.3-21.3,9.3-34.4,0-8.8-1.5-17.1-4.2-24.4-2.2-.3-4.5-.4-6.8-.4-18.9,0-35.4,9.5-45,24Z"/><path class="e" d="M105.6,115.4c-2.8-4.3-4.5-10.5-4.5-16.9s1.6-12.6,4.5-16.9c3-4.6,6-5.1,7.1-5.1,3.4,0,6.1,3.6,7.1,5.1,2.3,3.5,3.8,8.1,4.3,13.1,2.1-5,3.4-10.3,3.9-15.8-3.7-6.6-9.2-10.8-15.3-10.8-11.1,0-20.1,13.6-20.1,30.4,0,9.3,2.7,17.5,7,23.1,2.5-1.3,4.9-2.9,7.1-4.6-.4-.6-.9-1.2-1.1-1.6Z"/><path class="e" d="M93.7,44.9c0-7.9-1.1-15.5-3.1-22.3-3.1-1-6.3-1.7-9.6-2.1,2.8,7.3,4.2,15.7,4.2,24.4,0,13.1-3.3,25.3-9.3,34.4-5.5,8.4-11.4,11.2-15.6,12.1v-18.6l10-17.6-7.3-4.2-8.7,15.3-7.1-7.1-6,6,10.6,10.6v15c-3.9-1.3-8.7-4.5-13.3-11.4-6-9.1-9.3-21.3-9.3-34.4v-.9c-3.2,4.7-5.6,10-7.2,15.6,3.8,20.8,15.4,36.8,29.7,40v23.7c2.7,1.2,5.5,2.2,8.4,3v-26.3c18.9-2.6,33.6-26.3,33.6-55.2Z"/></g></g><rect class="d" width="332.9" height="147.9"/></g></g></g></svg>